<svg xmlns="http://www.w3.org/2000/svg" viewBox="0 0 24 20"><defs><style>.cls-1{fill:#fff;}</style></defs><title>Asset 4</title><g id="Layer_2" data-name="Layer 2"><g id="Layer_1-2" data-name="Layer 1"><path class="cls-1" d="M23.73,1.72A2.85,2.85,0,0,0,22.28.27,3.19,3.19,0,0,0,21,0H19a.94.94,0,0,0-1,1,.94.94,0,0,0,1,1h2a.94.94,0,0,1,1,1V5a1,1,0,0,0,2,0V3A3,3,0,0,0,23.73,1.72Z"/><path class="cls-1" d="M5,0H3A3.19,3.19,0,0,0,1.72.27,2.85,2.85,0,0,0,.27,1.72,3,3,0,0,0,0,3V5A.94.94,0,0,0,1,6,.94.94,0,0,0,2,5V3A.94.94,0,0,1,3,2H5A.94.94,0,0,0,6,1,.94.94,0,0,0,5,0Z"/><path class="cls-1" d="M5,18H3a.94.94,0,0,1-1-1V15a.94.94,0,0,0-1-1,.94.94,0,0,0-1,1v2a3,3,0,0,0,.27,1.28,2.85,2.85,0,0,0,1.45,1.45A3.19,3.19,0,0,0,3,20H5a1,1,0,0,0,0-2Z"/><path class="cls-1" d="M23,14a.94.94,0,0,0-1,1v2a.94.94,0,0,1-1,1H19a1,1,0,0,0,0,2h2a3.19,3.19,0,0,0,1.28-.27,2.85,2.85,0,0,0,1.45-1.45A3,3,0,0,0,24,17V15A.94.94,0,0,0,23,14Z"/><rect class="cls-1" x="5.63" y="14.94" width="1.23" height="1.23"/><rect class="cls-1" x="7.48" y="14.94" width="1.23" height="1.23"/><rect class="cls-1" x="9.86" y="14.94" width="1.23" height="1.23"/><rect class="cls-1" x="12.31" y="14.94" width="1.23" height="1.23"/><rect class="cls-1" x="15.43" y="14.94" width="1.23" height="1.23"/><rect class="cls-1" x="17.2" y="14.94" width="1.23" height="1.23"/><rect class="cls-1" x="3.23" y="3.83" width="1.24" height="4.67"/><rect class="cls-1" x="3.23" y="11.5" width="1.24" height="4.66"/><rect class="cls-1" x="9.25" y="3.83" width="1.85" height="4.67"/><rect class="cls-1" x="9.25" y="11.5" width="1.85" height="2.2"/><rect class="cls-1" x="13.6" y="3.83" width="1.24" height="4.67"/><rect class="cls-1" x="13.6" y="11.5" width="1.24" height="2.2"/><rect class="cls-1" x="19.54" y="3.83" width="1.23" height="4.67"/><rect class="cls-1" x="19.54" y="11.5" width="1.23" height="4.66"/><rect class="cls-1" x="5.63" y="3.83" width="0.62" height="4.67"/><rect class="cls-1" x="5.63" y="11.5" width="0.62" height="2.2"/><rect class="cls-1" x="7.48" y="3.83" width="0.62" height="4.67"/><rect class="cls-1" x="7.48" y="11.5" width="0.62" height="2.2"/><rect class="cls-1" x="16.04" y="3.83" width="0.62" height="4.67"/><rect class="cls-1" x="16.04" y="11.5" width="0.62" height="2.2"/><rect class="cls-1" x="17.81" y="3.83" width="0.62" height="4.67"/><rect class="cls-1" x="17.81" y="11.5" width="0.62" height="2.2"/><path class="cls-1" d="M23,9.5H1a.5.5,0,0,0,0,1H23a.5.5,0,0,0,0-1Z"/></g></g></svg>