<svg xmlns="http://www.w3.org/2000/svg" viewBox="0 0 22 22.46"><defs><style>.cls-1{fill:#fff;}</style></defs><title>Asset 2</title><g id="Layer_2" data-name="Layer 2"><g id="Layer_1-2" data-name="Layer 1"><path class="cls-1" d="M17.74,13.17a.8.8,0,0,0-.85.85v5.91a.8.8,0,0,1-.84.85H2.53a.8.8,0,0,1-.84-.85V6.42a.8.8,0,0,1,.84-.85H8.45a.79.79,0,0,0,.84-.84.8.8,0,0,0-.84-.85H2.53A2.49,2.49,0,0,0,0,6.42V19.93a2.48,2.48,0,0,0,2.53,2.53H16.05a2.48,2.48,0,0,0,2.53-2.53V14A.8.8,0,0,0,17.74,13.17Z"/><path class="cls-1" d="M21.75,3.63,18.37.25a.83.83,0,0,0-1.18,0,.82.82,0,0,0,0,1.19l1.94,1.94H17.78a6.78,6.78,0,0,0-4.82,2,8.57,8.57,0,0,0-1.09,1.43A7.28,7.28,0,0,0,11,10.13a5,5,0,0,1-1.1,3.13A5,5,0,0,1,6,15.2H4.26a.85.85,0,0,0,0,1.69H6a6.78,6.78,0,0,0,4.82-2,9.69,9.69,0,0,0,1.1-1.43,7.44,7.44,0,0,0,.84-3.3A5,5,0,0,1,13.81,7a5,5,0,0,1,4-1.94h1.35L17.19,7a.81.81,0,0,0,0,1.18.8.8,0,0,0,1.18,0l3.38-3.38A.83.83,0,0,0,21.75,3.63Z"/></g></g></svg>