<svg xmlns="http://www.w3.org/2000/svg" viewBox="0 0 22 22"><defs><style>.cls-1{fill:#e3594d;}.cls-2{fill:#b5463d;}.cls-3{fill:#258eb3;}.cls-4{fill:#dcbcb8;}</style></defs><title>Asset 3</title><g id="Layer_2" data-name="Layer 2"><g id="Layer_1-2" data-name="Layer 1"><path class="cls-1" d="M7.77,21.69.31,14.23a1.06,1.06,0,0,1,0-1.49L12.74.31a1.06,1.06,0,0,1,1.49,0l7.46,7.46a1.06,1.06,0,0,1,0,1.49L9.26,21.69A1.06,1.06,0,0,1,7.77,21.69Z"/><path class="cls-2" d="M9.26,21.69l2-2c0-.12-8.81-8.9-8.95-8.95l-2,2a1.06,1.06,0,0,0,0,1.49l7.46,7.46A1.06,1.06,0,0,0,9.26,21.69Z"/><path class="cls-3" d="M14.23.31a1.06,1.06,0,0,0-1.49,0L7.27,5.77l9,9,5.47-5.47a1.06,1.06,0,0,0,0-1.49Z"/><path class="cls-4" d="M10.13,20.82l-.49.48L.7,12.36l.49-.49Z"/></g></g></svg>