<svg xmlns="http://www.w3.org/2000/svg" viewBox="0 0 22 18.3"><defs><style>.cls-1{fill:#fff;}</style></defs><title>Asset 10</title><g id="Layer_2" data-name="Layer 2"><g id="Layer_1-2" data-name="Layer 1"><path class="cls-1" d="M22,1.75V7.27a.87.87,0,0,1-.92.92H15.56a.87.87,0,0,1-.92-.92.87.87,0,0,1,.92-.92h3.13c-1.86-1.86-3.83-4.15-6.6-4.52a7.28,7.28,0,0,0-4.33.71A8.07,8.07,0,0,0,4.34,6.26c-.09.18-.09.27-.19.46A1,1,0,0,1,3,7.27a1,1,0,0,1-.6-.85,1.43,1.43,0,0,1,.19-.66,16.47,16.47,0,0,1,.9-1.58A10.93,10.93,0,0,1,4.88,2.43l.24-.22a8.26,8.26,0,0,1,1.21-.9A7.12,7.12,0,0,1,7.65.64,10.63,10.63,0,0,1,9.4.18,11.41,11.41,0,0,1,11.14,0a9.72,9.72,0,0,1,4.37,1,10.72,10.72,0,0,1,2.57,2c.36.36.71.74,1.07,1.1s.83.79,1.2,1.23c0-1.12,0-2.23,0-3.35a1.4,1.4,0,0,1,.17-.81,1,1,0,0,1,.65-.34.76.76,0,0,1,.57.14A1,1,0,0,1,22,1.75ZM.84,17.39a.87.87,0,0,0,.92-.92V13.72c0-.11-.13-.72.09-.68s.29.22.39.33l.47.49A29.58,29.58,0,0,0,4.81,16,8.91,8.91,0,0,0,8.4,18l.29.08A9.56,9.56,0,0,0,15,17.39a9,9,0,0,0,3.37-2.88c.25-.35.48-.72.7-1.08a5.32,5.32,0,0,0,.63-1.29A.93.93,0,0,0,18,11.59c-.09.18-.09.28-.18.46a7.45,7.45,0,0,1-4,4,7.37,7.37,0,0,1-5.84-.16A9.28,9.28,0,0,1,5.45,14l-1.8-1.72c-.1-.1-.36-.25-.19-.34a1.34,1.34,0,0,1,.53,0c.36,0,.71,0,1.07,0H6.45A.87.87,0,0,0,7.37,11a.87.87,0,0,0-.92-.92H.93A.87.87,0,0,0,0,11v5.52C-.08,17,.29,17.39.84,17.39Z"/></g></g></svg>