<svg xmlns="http://www.w3.org/2000/svg" viewBox="0 0 22 19.97"><defs><style>.cls-1{fill:#fff;}</style></defs><title>Asset 7</title><g id="Layer_2" data-name="Layer 2"><g id="Layer_1-2" data-name="Layer 1"><path class="cls-1" d="M19.1,0H2.9A2.84,2.84,0,0,0,0,2.9V13a2.83,2.83,0,0,0,2.9,2.89h7.23v2.31H7A.87.87,0,0,0,7,20h8.1a.87.87,0,0,0,0-1.74H11.87V15.92H19.1A2.83,2.83,0,0,0,22,13V2.9A2.84,2.84,0,0,0,19.1,0ZM1.74,2.9A1.11,1.11,0,0,1,2.9,1.74H19.1A1.11,1.11,0,0,1,20.26,2.9V13a1.11,1.11,0,0,1-1.16,1.15H2.9A1.11,1.11,0,0,1,1.74,13Z"/></g></g></svg>